<?xml version="1.0" encoding="UTF-8" standalone="no"?>
<!DOCTYPE svg PUBLIC "-//W3C//DTD SVG 1.1//EN"
 "http://www.w3.org/Graphics/SVG/1.1/DTD/svg11.dtd">
<!-- Generated by graphviz version 12.2.0 (20241103.1931)
 -->
<!-- Title: Dialogue Flow with NLU Examples Pages: 1 -->
<svg width="401pt" height="1218pt"
 viewBox="0.00 0.00 400.50 1217.50" xmlns="http://www.w3.org/2000/svg" xmlns:xlink="http://www.w3.org/1999/xlink">
<g id="graph0" class="graph" transform="scale(1 1) rotate(0) translate(4 1213.5)">
<title>Dialogue Flow with NLU Examples</title>
<polygon fill="white" stroke="none" points="-4,4 -4,-1213.5 396.5,-1213.5 396.5,4 -4,4"/>
<!-- start -->
<g id="node1" class="node">
<title>start</title>
<ellipse fill="green" stroke="green" cx="196.25" cy="-1191.5" rx="164.97" ry="18"/>
<text text-anchor="middle" x="196.25" y="-1186.45" font-family="Times New Roman,serif" font-size="14.00">User: Hi (User Greets Bot (Intent: greet))</text>
</g>
<!-- utter_greet -->
<g id="node2" class="node">
<title>utter_greet</title>
<polygon fill="lightblue" stroke="lightblue" points="392.5,-1137.5 0,-1137.5 0,-1101.5 392.5,-1101.5 392.5,-1137.5"/>
<text text-anchor="middle" x="196.25" y="-1114.45" font-family="Times New Roman,serif" font-size="14.00">Bot: &#39;Hello! I&#39;m here to help predict housing prices. Let&#39;s get started.&#39;</text>
</g>
<!-- start&#45;&gt;utter_greet -->
<g id="edge1" class="edge">
<title>start&#45;&gt;utter_greet</title>
<path fill="none" stroke="black" d="M196.25,-1173.2C196.25,-1165.91 196.25,-1157.23 196.25,-1149.04"/>
<polygon fill="black" stroke="black" points="199.75,-1149.12 196.25,-1139.12 192.75,-1149.12 199.75,-1149.12"/>
</g>
<!-- ask_city -->
<g id="node3" class="node">
<title>ask_city</title>
<polygon fill="lightblue" stroke="lightblue" points="314.5,-1065.5 78,-1065.5 78,-1029.5 314.5,-1029.5 314.5,-1065.5"/>
<text text-anchor="middle" x="196.25" y="-1042.45" font-family="Times New Roman,serif" font-size="14.00">Bot: &#39;In which city is the house located?&#39;</text>
</g>
<!-- utter_greet&#45;&gt;ask_city -->
<g id="edge2" class="edge">
<title>utter_greet&#45;&gt;ask_city</title>
<path fill="none" stroke="black" d="M196.25,-1101.2C196.25,-1093.91 196.25,-1085.23 196.25,-1077.04"/>
<polygon fill="black" stroke="black" points="199.75,-1077.12 196.25,-1067.12 192.75,-1077.12 199.75,-1077.12"/>
</g>
<!-- provide_city -->
<g id="node4" class="node">
<title>provide_city</title>
<ellipse fill="green" stroke="green" cx="196.25" cy="-975.5" rx="106.63" ry="18"/>
<text text-anchor="middle" x="196.25" y="-970.45" font-family="Times New Roman,serif" font-size="14.00">User: &#39;The city is Miami.&#39;</text>
</g>
<!-- ask_city&#45;&gt;provide_city -->
<g id="edge3" class="edge">
<title>ask_city&#45;&gt;provide_city</title>
<path fill="none" stroke="black" d="M196.25,-1029.2C196.25,-1021.91 196.25,-1013.23 196.25,-1005.04"/>
<polygon fill="black" stroke="black" points="199.75,-1005.12 196.25,-995.12 192.75,-1005.12 199.75,-1005.12"/>
</g>
<!-- ask_beds -->
<g id="node5" class="node">
<title>ask_beds</title>
<polygon fill="lightblue" stroke="lightblue" points="338.88,-921.5 53.62,-921.5 53.62,-885.5 338.88,-885.5 338.88,-921.5"/>
<text text-anchor="middle" x="196.25" y="-898.45" font-family="Times New Roman,serif" font-size="14.00">Bot: &#39;How many bedrooms does the house have?&#39;</text>
</g>
<!-- provide_city&#45;&gt;ask_beds -->
<g id="edge4" class="edge">
<title>provide_city&#45;&gt;ask_beds</title>
<path fill="none" stroke="black" d="M196.25,-957.2C196.25,-949.91 196.25,-941.23 196.25,-933.04"/>
<polygon fill="black" stroke="black" points="199.75,-933.12 196.25,-923.12 192.75,-933.12 199.75,-933.12"/>
</g>
<!-- provide_beds -->
<g id="node6" class="node">
<title>provide_beds</title>
<ellipse fill="green" stroke="green" cx="196.25" cy="-831.5" rx="106.11" ry="18"/>
<text text-anchor="middle" x="196.25" y="-826.45" font-family="Times New Roman,serif" font-size="14.00">User: &#39;It has 3 bedrooms.&#39;</text>
</g>
<!-- ask_beds&#45;&gt;provide_beds -->
<g id="edge5" class="edge">
<title>ask_beds&#45;&gt;provide_beds</title>
<path fill="none" stroke="black" d="M196.25,-885.2C196.25,-877.91 196.25,-869.23 196.25,-861.04"/>
<polygon fill="black" stroke="black" points="199.75,-861.12 196.25,-851.12 192.75,-861.12 199.75,-861.12"/>
</g>
<!-- ask_baths -->
<g id="node7" class="node">
<title>ask_baths</title>
<polygon fill="lightblue" stroke="lightblue" points="340.75,-777.5 51.75,-777.5 51.75,-741.5 340.75,-741.5 340.75,-777.5"/>
<text text-anchor="middle" x="196.25" y="-754.45" font-family="Times New Roman,serif" font-size="14.00">Bot: &#39;How many bathrooms does the house have?&#39;</text>
</g>
<!-- provide_beds&#45;&gt;ask_baths -->
<g id="edge6" class="edge">
<title>provide_beds&#45;&gt;ask_baths</title>
<path fill="none" stroke="black" d="M196.25,-813.2C196.25,-805.91 196.25,-797.23 196.25,-789.04"/>
<polygon fill="black" stroke="black" points="199.75,-789.12 196.25,-779.12 192.75,-789.12 199.75,-789.12"/>
</g>
<!-- provide_baths -->
<g id="node8" class="node">
<title>provide_baths</title>
<ellipse fill="green" stroke="green" cx="196.25" cy="-687.5" rx="123.52" ry="18"/>
<text text-anchor="middle" x="196.25" y="-682.45" font-family="Times New Roman,serif" font-size="14.00">User: &#39;There are 2 bathrooms.&#39;</text>
</g>
<!-- ask_baths&#45;&gt;provide_baths -->
<g id="edge7" class="edge">
<title>ask_baths&#45;&gt;provide_baths</title>
<path fill="none" stroke="black" d="M196.25,-741.2C196.25,-733.91 196.25,-725.23 196.25,-717.04"/>
<polygon fill="black" stroke="black" points="199.75,-717.12 196.25,-707.12 192.75,-717.12 199.75,-717.12"/>
</g>
<!-- ask_living_space -->
<g id="node9" class="node">
<title>ask_living_space</title>
<polygon fill="lightblue" stroke="lightblue" points="340.75,-633.5 51.75,-633.5 51.75,-597.5 340.75,-597.5 340.75,-633.5"/>
<text text-anchor="middle" x="196.25" y="-610.45" font-family="Times New Roman,serif" font-size="14.00">Bot: &#39;What is the living space area in square feet?&#39;</text>
</g>
<!-- provide_baths&#45;&gt;ask_living_space -->
<g id="edge8" class="edge">
<title>provide_baths&#45;&gt;ask_living_space</title>
<path fill="none" stroke="black" d="M196.25,-669.2C196.25,-661.91 196.25,-653.23 196.25,-645.04"/>
<polygon fill="black" stroke="black" points="199.75,-645.12 196.25,-635.12 192.75,-645.12 199.75,-645.12"/>
</g>
<!-- provide_living_space -->
<g id="node10" class="node">
<title>provide_living_space</title>
<ellipse fill="green" stroke="green" cx="196.25" cy="-543.5" rx="173.16" ry="18"/>
<text text-anchor="middle" x="196.25" y="-538.45" font-family="Times New Roman,serif" font-size="14.00">User: &#39;The living space is 1500 square feet.&#39;</text>
</g>
<!-- ask_living_space&#45;&gt;provide_living_space -->
<g id="edge9" class="edge">
<title>ask_living_space&#45;&gt;provide_living_space</title>
<path fill="none" stroke="black" d="M196.25,-597.2C196.25,-589.91 196.25,-581.23 196.25,-573.04"/>
<polygon fill="black" stroke="black" points="199.75,-573.12 196.25,-563.12 192.75,-573.12 199.75,-573.12"/>
</g>
<!-- ask_zip_density -->
<g id="node11" class="node">
<title>ask_zip_density</title>
<polygon fill="lightblue" stroke="lightblue" points="349,-489.5 43.5,-489.5 43.5,-453.5 349,-453.5 349,-489.5"/>
<text text-anchor="middle" x="196.25" y="-466.45" font-family="Times New Roman,serif" font-size="14.00">Bot: &#39;What is the population density of the zip code?&#39;</text>
</g>
<!-- provide_living_space&#45;&gt;ask_zip_density -->
<g id="edge10" class="edge">
<title>provide_living_space&#45;&gt;ask_zip_density</title>
<path fill="none" stroke="black" d="M196.25,-525.2C196.25,-517.91 196.25,-509.23 196.25,-501.04"/>
<polygon fill="black" stroke="black" points="199.75,-501.12 196.25,-491.12 192.75,-501.12 199.75,-501.12"/>
</g>
<!-- provide_zip_density -->
<g id="node12" class="node">
<title>provide_zip_density</title>
<ellipse fill="green" stroke="green" cx="196.25" cy="-399.5" rx="154.22" ry="18"/>
<text text-anchor="middle" x="196.25" y="-394.45" font-family="Times New Roman,serif" font-size="14.00">User: &#39;The population density is 5000.&#39;</text>
</g>
<!-- ask_zip_density&#45;&gt;provide_zip_density -->
<g id="edge11" class="edge">
<title>ask_zip_density&#45;&gt;provide_zip_density</title>
<path fill="none" stroke="black" d="M196.25,-453.2C196.25,-445.91 196.25,-437.23 196.25,-429.04"/>
<polygon fill="black" stroke="black" points="199.75,-429.12 196.25,-419.12 192.75,-429.12 199.75,-429.12"/>
</g>
<!-- ask_income -->
<g id="node13" class="node">
<title>ask_income</title>
<polygon fill="lightblue" stroke="lightblue" points="360.62,-345.5 31.88,-345.5 31.88,-309.5 360.62,-309.5 360.62,-345.5"/>
<text text-anchor="middle" x="196.25" y="-322.45" font-family="Times New Roman,serif" font-size="14.00">Bot: &#39;What is the median household income in that area?&#39;</text>
</g>
<!-- provide_zip_density&#45;&gt;ask_income -->
<g id="edge12" class="edge">
<title>provide_zip_density&#45;&gt;ask_income</title>
<path fill="none" stroke="black" d="M196.25,-381.2C196.25,-373.91 196.25,-365.23 196.25,-357.04"/>
<polygon fill="black" stroke="black" points="199.75,-357.12 196.25,-347.12 192.75,-357.12 199.75,-357.12"/>
</g>
<!-- provide_income -->
<g id="node14" class="node">
<title>provide_income</title>
<ellipse fill="green" stroke="green" cx="196.25" cy="-255.5" rx="152.69" ry="18"/>
<text text-anchor="middle" x="196.25" y="-250.45" font-family="Times New Roman,serif" font-size="14.00">User: &#39;The median income is 100000.&#39;</text>
</g>
<!-- ask_income&#45;&gt;provide_income -->
<g id="edge13" class="edge">
<title>ask_income&#45;&gt;provide_income</title>
<path fill="none" stroke="black" d="M196.25,-309.2C196.25,-301.91 196.25,-293.23 196.25,-285.04"/>
<polygon fill="black" stroke="black" points="199.75,-285.12 196.25,-275.12 192.75,-285.12 199.75,-285.12"/>
</g>
<!-- action_predict -->
<g id="node15" class="node">
<title>action_predict</title>
<polygon fill="lightblue" stroke="lightblue" points="341.5,-201.5 51,-201.5 51,-144 341.5,-144 341.5,-201.5"/>
<text text-anchor="middle" x="196.25" y="-184.2" font-family="Times New Roman,serif" font-size="14.00">Bot: Triggers Prediction Action (for both models) </text>
<text text-anchor="middle" x="196.25" y="-167.7" font-family="Times New Roman,serif" font-size="14.00">Linear Regression Prediction: $144,682.81</text>
<text text-anchor="middle" x="196.25" y="-151.2" font-family="Times New Roman,serif" font-size="14.00"> Random Forest Prediction: $1,465,460.58</text>
</g>
<!-- provide_income&#45;&gt;action_predict -->
<g id="edge14" class="edge">
<title>provide_income&#45;&gt;action_predict</title>
<path fill="none" stroke="black" d="M196.25,-237.38C196.25,-230.31 196.25,-221.8 196.25,-213.34"/>
<polygon fill="black" stroke="black" points="199.75,-213.48 196.25,-203.48 192.75,-213.48 199.75,-213.48"/>
</g>
<!-- utter_goodbye -->
<g id="node16" class="node">
<title>utter_goodbye</title>
<polygon fill="lightblue" stroke="lightblue" points="296.5,-108 96,-108 96,-72 296.5,-72 296.5,-108"/>
<text text-anchor="middle" x="196.25" y="-84.95" font-family="Times New Roman,serif" font-size="14.00">Bot: &#39;Goodbye! Have a great day.&#39;</text>
</g>
<!-- action_predict&#45;&gt;utter_goodbye -->
<g id="edge15" class="edge">
<title>action_predict&#45;&gt;utter_goodbye</title>
<path fill="none" stroke="black" d="M196.25,-143.51C196.25,-135.75 196.25,-127.33 196.25,-119.55"/>
<polygon fill="black" stroke="black" points="199.75,-119.56 196.25,-109.56 192.75,-119.56 199.75,-119.56"/>
</g>
<!-- end -->
<g id="node17" class="node">
<title>end</title>
<ellipse fill="green" stroke="green" cx="196.25" cy="-18" rx="178.79" ry="18"/>
<text text-anchor="middle" x="196.25" y="-12.95" font-family="Times New Roman,serif" font-size="14.00">End: User Ends Interaction (Intent: goodbye)</text>
</g>
<!-- utter_goodbye&#45;&gt;end -->
<g id="edge16" class="edge">
<title>utter_goodbye&#45;&gt;end</title>
<path fill="none" stroke="black" d="M196.25,-71.7C196.25,-64.41 196.25,-55.73 196.25,-47.54"/>
<polygon fill="black" stroke="black" points="199.75,-47.62 196.25,-37.62 192.75,-47.62 199.75,-47.62"/>
</g>
</g>
</svg>
